<svg aria-hidden="true" style="position: absolute; width: 0; height: 0; overflow: hidden;" version="1.1" xmlns="http://www.w3.org/2000/svg" xmlns:xlink="http://www.w3.org/1999/xlink">
<defs>
<symbol id="icon-archive" viewBox="0 0 24 24">
<title>archive</title>
<path d="M23 2h-22c-0.6 0-1 0.4-1 1v5c0 0.6 0.4 1 1 1h1v12c0 0.6 0.4 1 1 1h18c0.6 0 1-0.4 1-1v-12h1c0.6 0 1-0.4 1-1v-5c0-0.6-0.4-1-1-1zM20 20h-16v-11h16v11zM22 7h-20v-3h20v3z"></path>
<path d="M10 13h4c0.6 0 1-0.4 1-1s-0.4-1-1-1h-4c-0.6 0-1 0.4-1 1s0.4 1 1 1z"></path>
</symbol>
<symbol id="icon-edit" viewBox="0 0 24 24">
<title>edit</title>
<path d="M20 13.7c-0.6 0-1 0.4-1 1v5.3c0 0.6-0.4 1-1 1h-14c-0.6 0-1-0.4-1-1v-14c0-0.6 0.4-1 1-1h5.3c0.6 0 1-0.4 1-1s-0.4-1-1-1h-5.3c-1.7 0-3 1.3-3 3v14c0 1.7 1.3 3 3 3h14c1.7 0 3-1.3 3-3v-5.3c0-0.6-0.4-1-1-1z"></path>
<path d="M22.7 5.3l-4-4c-0.4-0.4-1-0.4-1.4 0l-10 10c-0.2 0.2-0.3 0.4-0.3 0.7v4c0 0.6 0.4 1 1 1h4c0.3 0 0.5-0.1 0.7-0.3l10-10c0.4-0.4 0.4-1 0-1.4zM11.6 15h-2.6v-2.6l9-9 2.6 2.6-9 9z"></path>
</symbol>
<symbol id="icon-flag" viewBox="0 0 24 24">
<title>flag</title>
<path d="M20.4 2.1c-0.4-0.2-0.8-0.1-1.1 0.2 0 0-0.9 0.7-3.3 0.7-1.3 0-2.4-0.5-3.6-0.9-1.3-0.6-2.7-1.1-4.4-1.1-3.2 0-4.5 1.1-4.7 1.3s-0.3 0.4-0.3 0.7v19c0 0.6 0.4 1 1 1s1-0.4 1-1v-6.5c0.4-0.2 1.4-0.5 3-0.5 1.3 0 2.4 0.5 3.6 0.9 1.3 0.5 2.7 1.1 4.4 1.1 3.2 0 4.5-1.1 4.7-1.3s0.3-0.4 0.3-0.7v-12c0-0.4-0.2-0.7-0.6-0.9zM19 14.5c-0.4 0.2-1.4 0.5-3 0.5-1.3 0-2.4-0.5-3.6-0.9-1.3-0.6-2.7-1.1-4.4-1.1-1.3 0-2.3 0.2-3 0.4v-9.9c0.4-0.2 1.4-0.5 3-0.5 1.3 0 2.4 0.5 3.6 0.9 1.3 0.6 2.7 1.1 4.4 1.1 1.3 0 2.3-0.2 3-0.4v9.9z"></path>
</symbol>
<symbol id="icon-hash" viewBox="0 0 24 24">
<title>hash</title>
<path d="M20 14h-4.2l0.4-4h3.8c0.6 0 1-0.4 1-1s-0.4-1-1-1h-3.5l0.5-4.9c0.1-0.5-0.3-1-0.9-1.1-0.5-0.1-1 0.3-1.1 0.9l-0.6 5.1h-4l0.6-4.9c0.1-0.5-0.3-1-0.9-1.1-0.5-0.1-1 0.3-1.1 0.9l-0.6 5.1h-4.4c-0.6 0-1 0.4-1 1s0.4 1 1 1h4.2l-0.4 4h-3.8c-0.6 0-1 0.4-1 1s0.4 1 1 1h3.5l-0.5 4.9c-0.1 0.5 0.3 1 0.9 1.1 0 0 0.1 0 0.1 0 0.5 0 0.9-0.4 1-0.9l0.6-5.1h4l-0.6 4.9c-0.1 0.5 0.3 1 0.9 1.1 0 0 0.1 0 0.1 0 0.5 0 0.9-0.4 1-0.9l0.6-5.1h4.4c0.6 0 1-0.4 1-1s-0.4-1-1-1zM9.8 14l0.4-4h4l-0.4 4h-4z"></path>
</symbol>
<symbol id="icon-menu" viewBox="0 0 24 24">
<title>menu</title>
<path d="M21 11h-18c-0.6 0-1 0.4-1 1s0.4 1 1 1h18c0.6 0 1-0.4 1-1s-0.4-1-1-1z"></path>
<path d="M3 7h18c0.6 0 1-0.4 1-1s-0.4-1-1-1h-18c-0.6 0-1 0.4-1 1s0.4 1 1 1z"></path>
<path d="M21 17h-18c-0.6 0-1 0.4-1 1s0.4 1 1 1h18c0.6 0 1-0.4 1-1s-0.4-1-1-1z"></path>
</symbol>
<symbol id="icon-plus" viewBox="0 0 24 24">
<title>plus</title>
<path d="M19 11h-6v-6c0-0.6-0.4-1-1-1s-1 0.4-1 1v6h-6c-0.6 0-1 0.4-1 1s0.4 1 1 1h6v6c0 0.6 0.4 1 1 1s1-0.4 1-1v-6h6c0.6 0 1-0.4 1-1s-0.4-1-1-1z"></path>
</symbol>
<symbol id="icon-trash-2" viewBox="0 0 24 24">
<title>trash-2</title>
<path d="M21 5h-4v-1c0-1.7-1.3-3-3-3h-4c-1.7 0-3 1.3-3 3v1h-4c-0.6 0-1 0.4-1 1s0.4 1 1 1h1v13c0 1.7 1.3 3 3 3h10c1.7 0 3-1.3 3-3v-13h1c0.6 0 1-0.4 1-1s-0.4-1-1-1zM9 4c0-0.6 0.4-1 1-1h4c0.6 0 1 0.4 1 1v1h-6v-1zM18 20c0 0.6-0.4 1-1 1h-10c-0.6 0-1-0.4-1-1v-13h12v13z"></path>
<path d="M10 10c-0.6 0-1 0.4-1 1v6c0 0.6 0.4 1 1 1s1-0.4 1-1v-6c0-0.6-0.4-1-1-1z"></path>
<path d="M14 10c-0.6 0-1 0.4-1 1v6c0 0.6 0.4 1 1 1s1-0.4 1-1v-6c0-0.6-0.4-1-1-1z"></path>
</symbol>
<symbol id="icon-file-text" viewBox="0 0 24 24">
<title>file-text</title>
<path d="M20.9 7.6c-0.1-0.1-0.1-0.2-0.2-0.3l-6-6c-0.1-0.1-0.2-0.2-0.3-0.2-0.1-0.1-0.3-0.1-0.4-0.1h-8c-1.7 0-3 1.3-3 3v16c0 1.7 1.3 3 3 3h12c1.7 0 3-1.3 3-3v-12c0-0.1 0-0.3-0.1-0.4zM15 4.4l2.6 2.6h-2.6v-2.6zM18 21h-12c-0.6 0-1-0.4-1-1v-16c0-0.6 0.4-1 1-1h7v5c0 0.6 0.4 1 1 1h5v11c0 0.6-0.4 1-1 1z"></path>
<path d="M16 12h-8c-0.6 0-1 0.4-1 1s0.4 1 1 1h8c0.6 0 1-0.4 1-1s-0.4-1-1-1z"></path>
<path d="M16 16h-8c-0.6 0-1 0.4-1 1s0.4 1 1 1h8c0.6 0 1-0.4 1-1s-0.4-1-1-1z"></path>
<path d="M8 10h2c0.6 0 1-0.4 1-1s-0.4-1-1-1h-2c-0.6 0-1 0.4-1 1s0.4 1 1 1z"></path>
</symbol>
</defs>
</svg>
